<svg xmlns="http://www.w3.org/2000/svg" version="1.1" xmlns:xlink="http://www.w3.org/1999/xlink" xmlns:svgjs="http://svgjs.com/svgjs" width="512" height="512" x="0" y="0" viewBox="0 0 512 512" style="enable-background:new 0 0 512 512" xml:space="preserve" class=""><g><path fill="#222944" d="M512 256c0 141.385-114.615 256-256 256-42.279 0-82.164-10.249-117.306-28.398-32.691-16.883-55.757-46.124-78.349-74.789-2.399-3.043-10.25-.621-12.511-3.774C17.725 363.061 0 311.6 0 256 0 114.615 114.615 0 256 0s256 114.615 256 256z" data-original="#4172cc" class=""></path><path fill="#B9C3CD" d="M238.039 460H101.316a257.484 257.484 0 0 1-53.483-54.961V75a5 5 0 0 1 5-5H238.04a5 5 0 0 1 5 5v380a5.001 5.001 0 0 1-5.001 5z" data-original="#b9c3cd" class=""></path><path fill="#A2ABB8" d="M85.956 70a5 5 0 0 0-5 5v367.804a257.414 257.414 0 0 1-33.123-37.766V75a5 5 0 0 1 5-5z" data-original="#a2abb8"></path><path fill="#909BA6" d="M72 105a5 5 0 0 1 5-5h40a5 5 0 0 1 0 10H77a5 5 0 0 1-5-5zm5 75h40a5 5 0 0 0 0-10H77a5 5 0 0 0 0 10zm40 60H77a5 5 0 0 0 0 10h40a5 5 0 0 0 0-10zm-40-40h80a5 5 0 0 0 0-10H77a5 5 0 0 0 0 10zm80 20H77a5 5 0 0 0 0 10h80a5 5 0 0 0 0-10zm-80-90h30a5 5 0 0 0 0-10H77a5 5 0 0 0 0 10z" data-original="#909ba6" class=""></path><path fill="#DCE6EB" d="M451 25v380a5 5 0 0 1-5 5H141.833a5 5 0 0 1-5-5V25a5 5 0 0 1 5-5H446a5 5 0 0 1 5 5z" data-original="#dce6eb"></path><path fill="#C8D2DC" d="M166.667 410h-24.833a5 5 0 0 1-5-5V25a5 5 0 0 1 5-5h24.833a5 5 0 0 0-5 5v380a5 5 0 0 0 5 5z" data-original="#c8d2dc"></path><path fill="#B9C3CD" d="M342.5 375a5 5 0 0 1 5-5h63.333a5 5 0 0 1 0 10H347.5a5 5 0 0 1-5-5zM277 360h133.76a5 5 0 0 0 0-10H277a5 5 0 0 0 0 10zm.24-20H411a5 5 0 0 0 0-10H277.24a5 5 0 0 0 0 10zm0-20H411a5 5 0 0 0 0-10H277.24a5 5 0 0 0 0 10zM245.081 50h-63.333a5 5 0 0 0 0 10h63.333a5 5 0 0 0 0-10zm26.666 20h-90a5 5 0 0 0 0 10h90a5 5 0 0 0 0-10z" data-original="#b9c3cd" class=""></path><path fill="#FCCFC9" d="M416.462 125v160a5 5 0 0 1-5 5H177.629a5 5 0 0 1-5-5V125a5 5 0 0 1 5-5h233.833a5 5 0 0 1 5 5z" data-original="#fccfc9" class=""></path><path fill="#FBB3A8" d="M416.462 150v30H172.629v-30zm-243.833 90h243.833v-30H172.629z" data-original="#fbb3a8" class=""></path><path fill="#F76C57" d="M408 133a5 5 0 0 1-5 5h-40a5 5 0 0 1 0-10h40a5 5 0 0 1 5 5z" data-original="#f76c57"></path><path fill="#FA9084" d="M402 168h-20a5 5 0 0 1 0-10h20a5 5 0 0 1 0 10zm0 52h-9.489a5 5 0 0 0 0 10H402a5 5 0 0 0 0-10z" data-original="#fa9084"></path><path fill="#F44545" d="M391.698 262.835a4.997 4.997 0 0 1-2.941 2.448l-32.99 10.262a5 5 0 0 1-2.969-9.549l21.214-6.599-72.507-37.087a4.996 4.996 0 0 1-2.334-2.519l-20.547-49.035-45.048 27.028a5.004 5.004 0 0 1-7.018-2l-31.271-60.771a5 5 0 1 1 8.892-4.576l28.829 56.025 45.424-27.254a4.997 4.997 0 0 1 7.184 2.354l22.073 52.675 71.303 36.471L372.239 229a5 5 0 0 1 9.549-2.971l10.262 32.99a5.033 5.033 0 0 1-.352 3.816z" data-original="#f44545"></path><path fill="#71892E" d="m372.988 416.385-38.485 88.82a3.231 3.231 0 0 1-4.817 1.363l-29.022-20.302a202.342 202.342 0 0 0-80.373-33.382 202.335 202.335 0 0 1-72.738-28.295l-34.245-21.712a3.232 3.232 0 0 1-1.235-4.013l38.506-88.869a3.231 3.231 0 0 1 4.695-1.444l33.385 21.167a202.342 202.342 0 0 0 72.738 28.295 202.34 202.34 0 0 1 80.373 33.382l30.104 21.059a3.229 3.229 0 0 1 1.114 3.931z" data-original="#71892e"></path><path fill="#9BCF1B" d="m313.707 400.414-23.054 53.208a227.734 227.734 0 0 0-16.131-7.757c-15.998-6.932-32.792-12.03-49.878-15.084-23.074-4.125-44.812-12.582-64.608-25.133l-20.249-12.838 22.901-52.854 14.232 9.024c24.779 15.71 51.987 26.295 80.869 31.458 19.508 3.487 38.546 10.312 55.918 19.976z" data-original="#9bcf1b" class=""></path><path fill="#9BCF1B" d="m374.654 408.481-30.104-21.059c-24.459-17.109-52.918-28.929-82.298-34.181-25.357-4.533-49.242-13.825-70.997-27.618l-33.385-21.167c-2-1.268-4.44-1.594-6.7-.898s-4.096 2.339-5.037 4.509l-38.506 88.869a8.04 8.04 0 0 0 3.086 10.034l34.245 21.712c22.821 14.469 47.88 24.217 74.48 28.973 28.007 5.007 55.134 16.273 78.448 32.582l29.022 20.302a8.039 8.039 0 0 0 6.83 1.153 8.045 8.045 0 0 0 5.212-4.561l38.485-88.82c1.519-3.505.349-7.64-2.781-9.83zm-43.811 92.98-27.4-19.167c-24.459-17.109-52.918-28.929-82.298-34.181-25.357-4.533-49.242-13.825-70.997-27.618l-33.078-20.972 37.206-85.868 31.789 20.156c22.822 14.469 47.881 24.218 74.481 28.973 28.007 5.007 55.134 16.273 78.448 32.582l29.023 20.303z" data-original="#9bcf1b" class=""></path><path fill="#B9E746" d="M337.434 443.178c-7.095 16.374-26.12 23.896-42.493 16.802-16.374-7.095-23.896-26.12-16.801-42.493s26.12-23.896 42.493-16.801c16.373 7.093 23.895 26.118 16.801 42.492z" data-original="#b9e746"></path><path fill="#7FA32F" d="m358.117 391.611-35.4 1.138a202.33 202.33 0 0 0-84.348 21.438 202.335 202.335 0 0 1-75.188 20.935l-40.426 3.138a3.23 3.23 0 0 1-3.393-2.473l-22.426-94.22a3.23 3.23 0 0 1 2.893-3.969l39.412-3.06a202.34 202.34 0 0 0 75.188-20.935 202.36 202.36 0 0 1 84.348-21.438l36.72-1.18a3.231 3.231 0 0 1 3.247 2.481l22.414 94.168a3.233 3.233 0 0 1-3.041 3.977z" data-original="#7fa32f" class=""></path><path fill="#9BCF1B" d="M295.14 372.615a227.342 227.342 0 0 0-17.562 3.456c-16.961 4.037-33.461 10.019-48.97 17.813-20.944 10.524-43.415 16.78-66.783 18.595l-23.904 1.855-13.338-56.037 16.801-1.304c29.251-2.271 57.376-10.101 83.593-23.275 17.706-8.897 37.037-14.842 56.735-17.515z" data-original="#9bcf1b" class=""></path><path fill="#B9E746" d="m365.871 386.511-22.414-94.168c-.885-3.717-4.299-6.326-8.117-6.203l-36.72 1.18c-29.833.959-59.7 8.55-86.368 21.951-23.016 11.566-47.707 18.439-73.387 20.433l-39.412 3.06a8.062 8.062 0 0 0-5.902 3.296 8.065 8.065 0 0 0-1.33 6.628l22.426 94.22a8.04 8.04 0 0 0 8.484 6.183l40.426-3.138c26.94-2.092 52.843-9.303 76.989-21.436 25.421-12.774 53.89-20.01 82.327-20.925l35.4-1.138a8.038 8.038 0 0 0 6.158-3.169 8.041 8.041 0 0 0 1.44-6.774zm-43.31 1.394c-29.834.959-59.7 8.551-86.368 21.951-23.016 11.565-47.707 18.439-73.387 20.434l-39.049 3.031-21.669-91.039 37.527-2.913c26.942-2.092 52.844-9.304 76.989-21.436 25.422-12.774 53.89-20.01 82.327-20.925l35.401-1.138 21.65 90.96z" data-original="#b9e746"></path><path fill="#B9E746" d="M302.383 375.135c-17.36 4.132-34.782-6.591-38.914-23.951s6.591-34.782 23.951-38.914 34.782 6.591 38.914 23.951-6.591 34.782-23.951 38.914z" data-original="#b9e746"></path><path fill="#CAED73" d="M276.042 348.191c-2.479-10.416 3.955-20.869 14.371-23.349 10.416-2.479 20.869 3.955 23.349 14.371 2.479 10.416-3.955 20.869-14.371 23.349-10.417 2.479-20.87-3.955-23.349-14.371zm39.452 64.352c-9.824-4.257-21.239.257-25.496 10.081s.257 21.239 10.081 25.496 21.239-.257 25.496-10.081c4.256-9.824-.257-21.239-10.081-25.496z" data-original="#caed73"></path><path fill="#DBF3A0" d="M286.927 337.306a19.295 19.295 0 0 1 .835-11.63 19.545 19.545 0 0 1 2.65-.833c10.416-2.479 20.869 3.955 23.349 14.371a19.295 19.295 0 0 1-.835 11.63c-.851.336-1.735.615-2.65.833-10.416 2.479-20.87-3.955-23.349-14.371zm28.567 75.237a19.327 19.327 0 0 0-14.846-.236c-3.845 9.692.681 20.752 10.316 24.927a19.327 19.327 0 0 0 14.846.236c3.845-9.691-.681-20.752-10.316-24.927z" data-original="#dbf3a0"></path><path fill="#FF9100" d="M475.499 453.795c-15.621 15.621-40.948 15.621-56.569 0s-15.621-40.948 0-56.568c15.621-15.621 40.948-15.621 56.569 0s15.621 40.948 0 56.568z" data-original="#ff9100"></path><path fill="#FFA90B" d="M462.922 430.611c-7.81 7.81-20.474 7.81-28.284 0-7.81-7.811-7.81-20.474 0-28.284s20.474-7.81 28.284 0 7.81 20.474 0 28.284z" data-original="#ffa90b"></path><path fill="#FFCD71" d="M479.034 393.691c-17.545-17.545-46.094-17.545-63.64 0-17.545 17.545-17.545 46.094 0 63.64 17.545 17.545 46.094 17.545 63.64 0s17.546-46.094 0-63.64zm-7.071 56.569c-13.646 13.646-35.851 13.646-49.497 0s-13.646-35.851 0-49.498c13.646-13.646 35.851-13.646 49.497 0 13.647 13.647 13.647 35.852 0 49.498zm-7.071-14.142a5 5 0 1 1-7.071 7.071l-28.284-28.284a5 5 0 0 1 0-7.071 5 5 0 0 1 7.071 0z" data-original="#ffcd71"></path><path fill="#274C91" d="M242 285v190c0 8.284-6.716 15-15 15H87c-8.284 0-15-6.716-15-15V285c0-8.284 6.716-15 15-15h140c8.284 0 15 6.716 15 15z" data-original="#274c91"></path><path fill="#203E76" d="M117.088 490H87c-8.284 0-15-6.716-15-15V285c0-8.284 6.716-15 15-15h30.088c-8.284 0-15 6.716-15 15v190c0 8.284 6.715 15 15 15z" data-original="#203e76" class=""></path><path fill="#A2ABB8" d="M222 368v9a5 5 0 0 1-5 5h-17a5 5 0 0 1-5-5v-9a5 5 0 0 1 5-5h17a5 5 0 0 1 5 5zm-39.333-5h-17a5 5 0 0 0-5 5v9a5 5 0 0 0 5 5h17a5 5 0 0 0 5-5v-9a5 5 0 0 0-5-5zm-34.334 0h-17a5 5 0 0 0-5 5v9a5 5 0 0 0 5 5h17a5 5 0 0 0 5-5v-9a5 5 0 0 0-5-5zM114 363H97a5 5 0 0 0-5 5v9a5 5 0 0 0 5 5h17a5 5 0 0 0 5-5v-9a5 5 0 0 0-5-5zm103 29h-17a5 5 0 0 0-5 5v9a5 5 0 0 0 5 5h17a5 5 0 0 0 5-5v-9a5 5 0 0 0-5-5zm-34.333 0h-17a5 5 0 0 0-5 5v9a5 5 0 0 0 5 5h17a5 5 0 0 0 5-5v-9a5 5 0 0 0-5-5zm-34.334 0h-17a5 5 0 0 0-5 5v9a5 5 0 0 0 5 5h17a5 5 0 0 0 5-5v-9a5 5 0 0 0-5-5zM114 392H97a5 5 0 0 0-5 5v9a5 5 0 0 0 5 5h17a5 5 0 0 0 5-5v-9a5 5 0 0 0-5-5zm103 29h-17a5 5 0 0 0-5 5v9a5 5 0 0 0 5 5h17a5 5 0 0 0 5-5v-9a5 5 0 0 0-5-5zm-34.333 0h-17a5 5 0 0 0-5 5v9a5 5 0 0 0 5 5h17a5 5 0 0 0 5-5v-9a5 5 0 0 0-5-5zm-34.334 0h-17a5 5 0 0 0-5 5v9a5 5 0 0 0 5 5h17a5 5 0 0 0 5-5v-9a5 5 0 0 0-5-5zM217 450h-17a5 5 0 0 0-5 5v9a5 5 0 0 0 5 5h17a5 5 0 0 0 5-5v-9a5 5 0 0 0-5-5zm-34.333 0h-17a5 5 0 0 0-5 5v9a5 5 0 0 0 5 5h17a5 5 0 0 0 5-5v-9a5 5 0 0 0-5-5zm-34.334 0h-17a5 5 0 0 0-5 5v9a5 5 0 0 0 5 5h17a5 5 0 0 0 5-5v-9a5 5 0 0 0-5-5z" data-original="#a2abb8"></path><path fill="#FF9F22" d="M119 426v38a5 5 0 0 1-5 5H97a5 5 0 0 1-5-5v-38a5 5 0 0 1 5-5h17a5 5 0 0 1 5 5z" data-original="#ff9f22" class=""></path><path fill="#9BCF1B" d="M222 297v28a5 5 0 0 1-5 5H97a5 5 0 0 1-5-5v-28a5 5 0 0 1 5-5h120a5 5 0 0 1 5 5z" data-original="#9bcf1b" class=""></path><path fill="#B9E746" d="M222 297v28a5 5 0 0 1-5 5h-69.596c-10.493 0-19-8.507-19-19 0-10.494 8.507-19 19-19H217a5 5 0 0 1 5 5z" data-original="#b9e746"></path></g></svg>