<svg xmlns="http://www.w3.org/2000/svg" version="1.1" xmlns:xlink="http://www.w3.org/1999/xlink" xmlns:svgjs="http://svgjs.com/svgjs" width="512" height="512" x="0" y="0" viewBox="0 0 512 512" style="enable-background:new 0 0 512 512" xml:space="preserve"><g><path fill="#EAFAFF" d="M475.223 8H61.551a28.81 28.81 0 0 0-28.778 28.777v124.865l-12.027 12.026a8 8 0 0 0-1.058 10.008l4.6 7.095-1.675 4.029-8.278 1.761A8 8 0 0 0 8 204.383v19.983a8 8 0 0 0 6.334 7.824l8.274 1.762L24.286 238l-4.593 7.069a8 8 0 0 0 1.047 10.01l12.033 12.058v70.325h-1.92A22.878 22.878 0 0 0 8 360.311v53.317a22.879 22.879 0 0 0 22.853 22.853h13.4l10.868 60.924A8 8 0 0 0 63 504h27.01a8 8 0 0 0 8-8v-59.314c25.813 1.212 48.74 8.481 69.744 22.111v7.015a16.238 16.238 0 0 0 16.221 16.22h11.2a16.224 16.224 0 0 0 16.191-16.22v-30.549h53.924v29.72h-15.64a8 8 0 0 0 0 16h235.181a8 8 0 0 0 0-16h-15.64v-29.72h6.032A28.8 28.8 0 0 0 504 406.514V36.777A28.809 28.809 0 0 0 475.223 8zM325.141 435.263h12.174v29.72h-12.174zm72.025 29.72v-29.72h12.2v29.72z" data-original="#eafaff"></path><path fill="#A7A7FF" d="M371.45 265.942h-95.063v-5.407a8 8 0 1 0-16 0v5.407h-95.064a8 8 0 1 0 0 16h95.064v5.436a8 8 0 0 0 16 0v-5.436h95.063a8 8 0 1 0 0-16z" data-original="#a7a7ff"></path><rect width="222.127" height="126.292" x="157.323" y="119.794" fill="#FF6969" rx="8" data-original="#ff6969"></rect><path fill="#F75E5E" d="M167.323 238.086V127.794a8 8 0 0 1 8-8h-10a8 8 0 0 0-8 8v110.292a8 8 0 0 0 8 8h10a8 8 0 0 1-8-8z" data-original="#f75e5e"></path><path fill="#83A7C5" d="m136.8 196.558-8.268-1.759-1.661-4.019 4.6-7.1a8 8 0 0 0-1.063-10.014l-14.144-14.115a8 8 0 0 0-10.01-1.045l-7.069 4.592-4.044-1.678-1.761-8.274a8 8 0 0 0-7.825-6.335h-19.98a8 8 0 0 0-7.825 6.335l-1.761 8.279-4.025 1.673-7.095-4.6a8 8 0 0 0-10.007 1.057l-14.116 14.113a8 8 0 0 0-1.058 10.008l4.6 7.095-1.675 4.029-8.278 1.761A8 8 0 0 0 8 204.383v19.983a8 8 0 0 0 6.334 7.824l8.274 1.762L24.286 238l-4.593 7.069a8 8 0 0 0 1.047 10.01l14.116 14.141a8 8 0 0 0 10.013 1.061l7.1-4.6 4.018 1.662 1.759 8.267a8 8 0 0 0 7.825 6.335h19.988a8 8 0 0 0 7.824-6.334l1.76-8.264 4.038-1.666 7.076 4.6a8 8 0 0 0 10.016-1.05l14.145-14.145a8 8 0 0 0 1.052-10.016l-4.6-7.078 1.665-4.037 8.265-1.76a8 8 0 0 0 6.334-7.824v-19.988a8 8 0 0 0-6.334-7.825zm-61.225 35.37a17.539 17.539 0 1 1 17.539-17.539 17.567 17.567 0 0 1-17.539 17.539z" data-original="#83a7c5"></path><path fill="#C4DAEC" d="M504 36.777A28.809 28.809 0 0 0 475.223 8H61.551a28.81 28.81 0 0 0-28.778 28.777V97.3h141.649a8 8 0 0 0 6.672-3.586l13.586-20.535H504z" data-original="#c4daec"></path><path fill="#72D1FB" d="M211.362 355.173V308.1a16.224 16.224 0 0 0-16.219-16.192h-11.168a16.224 16.224 0 0 0-16.221 16.192v7.018c-23.1 15.015-48.578 22.341-77.744 22.341H30.853A22.878 22.878 0 0 0 8 360.311v53.317a22.879 22.879 0 0 0 22.853 22.853h13.4l10.868 60.924A8 8 0 0 0 63 504h27.01a8 8 0 0 0 8-8v-59.314c25.813 1.212 48.74 8.481 69.744 22.111v7.015a16.238 16.238 0 0 0 16.221 16.22h11.2a16.224 16.224 0 0 0 16.191-16.22v-47.075a32.773 32.773 0 0 0 0-63.564z" data-original="#72d1fb"></path><path fill="#FF6969" d="M195.143 291.907h-11.168a16.224 16.224 0 0 0-16.221 16.193v157.712a16.238 16.238 0 0 0 16.221 16.22h11.2a16.224 16.224 0 0 0 16.191-16.22V308.1a16.224 16.224 0 0 0-16.223-16.193z" data-original="#ff6969"></path><path fill="#F75E5E" d="M207.119 472.15h-11.2a16.239 16.239 0 0 1-16.219-16.22V298.216a16.071 16.071 0 0 1 1.17-6 16.222 16.222 0 0 0-13.116 15.884v157.712a16.238 16.238 0 0 0 16.221 16.22h11.2a16.209 16.209 0 0 0 15.016-10.183 16.16 16.16 0 0 1-3.072.301z" data-original="#f75e5e"></path><path fill="#FF6969" d="M98.309 337.233c-2.737.136-5.5.225-8.3.225H30.853A22.878 22.878 0 0 0 8 360.311v53.317a22.879 22.879 0 0 0 22.853 22.853H90.17c2.748 0 5.454.087 8.139.219z" data-original="#ff6969"></path><path fill="#F75E5E" d="M40.735 421.658a22.879 22.879 0 0 1-22.853-22.853v-53.318a22.806 22.806 0 0 1 .4-4.249A22.846 22.846 0 0 0 8 360.311v53.317a22.879 22.879 0 0 0 22.853 22.853H90.17c2.748 0 5.454.087 8.139.219v-15.042z" data-original="#f75e5e"></path><path fill="#41739F" d="M90.17 436.481H44.253l10.868 60.924A8 8 0 0 0 63 504h27.01a8 8 0 0 0 8-8v-59.315a167.429 167.429 0 0 0-7.84-.204z" data-original="#41739f"></path><path fill="#376F99" d="M60.734 452.02a7.063 7.063 0 0 1 6.954-8.3H98.01v-7.032c-2.588-.121-5.194-.2-7.84-.2H44.253l10.868 60.924A8 8 0 0 0 63 504h7.01z" data-original="#376f99"></path><path fill="#51C8F2" d="M167.754 458.8v-71.678c-2.581 40.5-69.445 34.536-69.445 34.536v15.047c25.691 1.254 48.523 8.515 69.445 22.095zM229.937 406.112c-18.116-8.086-18.575-24.9-18.575-24.9v37.529a32.873 32.873 0 0 0 18.575-12.629z" data-original="#51c8f2"></path><path fill="#A3C0D9" d="M32.778 36.777V97.3h20V36.777A28.809 28.809 0 0 1 81.554 8h-20a28.809 28.809 0 0 0-28.776 28.777z" data-original="#a3c0d9"></path><g fill="#83A7C5"><path fill-rule="evenodd" d="M84.312 60.644a7.994 7.994 0 1 0-7.994-7.994 8.021 8.021 0 0 0 7.994 7.994zM110.786 60.644a7.994 7.994 0 1 0-7.993-7.994 8.027 8.027 0 0 0 7.993 7.994zM137.289 60.644a7.994 7.994 0 1 0-8.021-7.994 8.021 8.021 0 0 0 8.021 7.994z" fill="#83A7C5" data-original="#83a7c5"></path><path d="M484.831 480.983H249.65a8 8 0 0 1 0-16h235.181a8 8 0 0 1 0 16z" fill="#83A7C5" data-original="#83a7c5"></path></g><path fill="#FFFFFF" d="m298.957 175.862-41-21.848a8 8 0 0 0-11.767 7.057v43.709a8 8 0 0 0 11.76 7.062l41.019-21.857a8 8 0 0 0-.008-14.123z" data-original="#ffffff"></path><path fill="#6464FF" d="M268.387 295.378a8 8 0 0 1-8-8v-26.843a8 8 0 1 1 16 0v26.843a8 8 0 0 1-8 8z" data-original="#6464ff"></path><path fill="#9DD46F" d="M469.191 464.983V298.858a8 8 0 0 0-8-8h-43.822a8 8 0 0 0-8 8v166.125z" data-original="#9dd46f"></path><path fill="#FFE958" d="M325.141 464.983V397.33a8 8 0 0 0-8-8H273.29a8 8 0 0 0-8 8v67.653z" data-original="#ffe958"></path><path fill="#72D1FB" d="M397.166 464.983V362.267a8 8 0 0 0-8-8h-43.851a8 8 0 0 0-8 8v102.716z" data-original="#72d1fb"></path><path fill="#94C961" d="M430.369 290.858h-13a8 8 0 0 0-8 8v166.125h13V298.858a8 8 0 0 1 8-8z" data-original="#94c961"></path><path fill="#FFDB06" d="M286.29 389.33h-13a8 8 0 0 0-8 8v67.653h13V397.33a8 8 0 0 1 8-8z" data-original="#ffdb06"></path><path fill="#51C8F2" d="M358.315 354.267h-13a8 8 0 0 0-8 8v102.716h13V362.267a8 8 0 0 1 8-8z" data-original="#51c8f2"></path><path fill="#41739F" d="M75.581 180.85a33.539 33.539 0 1 0 33.54 33.539 33.591 33.591 0 0 0-33.54-33.539zm0 51.078a17.539 17.539 0 1 1 17.54-17.539 17.573 17.573 0 0 1-17.54 17.539z" data-original="#41739f"></path><path fill="#CCE6F2" d="M34.862 159.553a8 8 0 0 1 10.007-1.053l7.095 4.6.813-.338V97.3h-20v64.341zM51.973 265.678l-7.1 4.6a8 8 0 0 1-10.013-1.061l-2.083-2.087v70.325h20V266.01z" data-original="#cce6f2"></path></g></svg>