<svg xmlns="http://www.w3.org/2000/svg" version="1.1" xmlns:xlink="http://www.w3.org/1999/xlink" xmlns:svgjs="http://svgjs.com/svgjs" width="512" height="512" x="0" y="0" viewBox="0 0 64 64" style="enable-background:new 0 0 512 512" xml:space="preserve" class=""><g><path fill="#333F47" d="M10 30a1 1 0 0 1-.71-.29 1 1 0 0 1 0-1.42l4-4A1 1 0 0 1 14 24h4a1 1 0 0 1 0 2h-3.59l-3.7 3.71A1 1 0 0 1 10 30zM54 30a1 1 0 0 1-.71-.29L49.59 26H46a1 1 0 0 1 0-2h4a1 1 0 0 1 .71.29l4 4a1 1 0 0 1 0 1.42A1 1 0 0 1 54 30z" data-original="#333f47"></path><circle cx="54" cy="29" r="3" fill="#F7636D" data-original="#f7636d"></circle><circle cx="10" cy="29" r="3" fill="#F7636D" data-original="#f7636d"></circle><g fill="#333F47"><path d="M50 13h-4a1 1 0 0 1 0-2h3.59l3.7-3.71a1 1 0 1 1 1.42 1.42l-4 4A1 1 0 0 1 50 13zM58 20H46a1 1 0 0 1 0-2h12a1 1 0 0 1 0 2zM18 13h-4a1 1 0 0 1-.71-.29l-4-4a1 1 0 1 1 1.42-1.42l3.7 3.71H18a1 1 0 0 1 0 2zM18 20H6a1 1 0 0 1 0-2h12a1 1 0 0 1 0 2z" fill="#333F47" data-original="#333f47"></path></g><path fill="#198EEE" d="M17 13.07v13.86a4 4 0 0 0 2 3.46l11.05 6.12a4 4 0 0 0 3.82 0L45 30.39a4 4 0 0 0 2-3.46V13.07a4 4 0 0 0-2-3.46L33.91 3.49a4 4 0 0 0-3.82 0L19 9.61a4 4 0 0 0-2 3.46z" data-original="#f7d079" class=""></path><path fill="#1886E1" d="M36.91 32.51a4 4 0 0 1-3.82 0L22 26.39a4 4 0 0 1-2-3.46V9.08l-1 .53a4 4 0 0 0-2 3.46v13.86a4 4 0 0 0 2 3.46l11.05 6.12a4 4 0 0 0 3.82 0L45 30.39a4 4 0 0 0 2-3.46z" data-original="#f9b15a" class=""></path><path fill="#F2F2F2" d="M28 16v8a1 1 0 0 1-1 1 1 1 0 0 1-.86-.5L22 19v5a1 1 0 0 1-2 0v-8a1 1 0 0 1 1-1 1 1 0 0 1 .86.5L26 21v-5a1 1 0 0 1 2 0zM35 17a1 1 0 0 0 0-2h-4a1 1 0 0 0-1 1v8a1 1 0 0 0 2 0v-3h3a1 1 0 0 0 0-2h-3v-2zM43 15h-4a1 1 0 0 0 0 2h1v7a1 1 0 0 0 2 0v-7h1a1 1 0 0 0 0-2z" data-original="#f2f2f2" class=""></path><path fill="#505860" d="M53 31H11a7.76 7.76 0 0 0-8 7.5v16.88A5.82 5.82 0 0 0 9 61h.57a6 6 0 0 0 5.73-4l4.7-4.44h24L48.7 57a6 6 0 0 0 5.73 4H55a5.82 5.82 0 0 0 6-5.62V38.5a7.76 7.76 0 0 0-8-7.5z" data-original="#505860"></path><path fill="#414A51" d="M61 54.48v.9A5.82 5.82 0 0 1 55 61h-.57a6 6 0 0 1-5.73-4L44 52.56H20L15.3 57a6 6 0 0 1-5.73 4H9a5.82 5.82 0 0 1-6-5.62V38.5a7 7 0 0 1 1-3.62v16.5A5.82 5.82 0 0 0 10 57h.57a6 6 0 0 0 5.73-4l4.7-4.44h24L49.7 53a6 6 0 0 0 5.73 4H56a6.09 6.09 0 0 0 5-2.52z" data-original="#414a51"></path><path fill="#333F47" d="M12 43H8v-4h4v-4h4v4h4v4h-4v4h-4z" data-original="#333f47"></path><path fill="#F7636D" d="M26 43h4v4h-4zM34 43h4v4h-4z" data-original="#f7636d"></path><circle cx="48" cy="36" r="2" fill="#F7636D" data-original="#f7636d"></circle><circle cx="54" cy="41" r="2" fill="#F7636D" data-original="#f7636d"></circle><circle cx="45" cy="44" r="2" fill="#198EEE" data-original="#f7d079" class=""></circle><circle cx="51" cy="49" r="2" fill="#198EEE" data-original="#f7d079" class=""></circle><circle cx="58" cy="19" r="3" fill="#F7636D" data-original="#f7636d"></circle><circle cx="54" cy="8" r="3" fill="#F7636D" data-original="#f7636d"></circle><circle cx="6" cy="19" r="3" fill="#F7636D" data-original="#f7636d"></circle><circle cx="10" cy="8" r="3" fill="#F7636D" data-original="#f7636d"></circle><path fill="#333F47" d="M24 56h4v4h-4zM35 55h4v4h-4z" data-original="#333f47"></path><path fill="#198EEE" d="M30 36h-4a1 1 0 0 1 0-2h4a1 1 0 0 1 0 2zM38 36h-4a1 1 0 0 1 0-2h4a1 1 0 0 1 0 2z" data-original="#f7d079" class=""></path></g></svg>